<svg xmlns="http://www.w3.org/2000/svg" viewBox="0 0 88.3 88.91"><defs><style>.a{fill:#fff;}</style></defs><title>Derrick-Farris-Logo2</title><path class="a" d="M45.13,3.09q0,5.4-.48,16.17T44.17,35.38q0,16.52.71,25l0,0.54q0,0.42-1.13.54a15.09,15.09,0,0,1-2.26,0l-1.63-.13q-0.63,0-1.84.13t-1.84.13q-0.59,0-.69-2.91t-0.31-2.95a2.45,2.45,0,0,0-.63.54q-5.73,6.19-13.17,6.19A17.36,17.36,0,0,1,7.53,56,21.87,21.87,0,0,1,2.38,41.41a22.24,22.24,0,0,1,5.19-15,17.77,17.77,0,0,1,14.18-6.36,14.44,14.44,0,0,1,9.2,3.1q1.8,1.55,3.56,3.14a0.55,0.55,0,0,0,.33-0.59V12.17q0-1.38-.13-4.18T34.59,3.76q0-1,.67-1,1.55,0,4.6-.27t4.56-.27A0.71,0.71,0,0,1,45.13,3.09ZM34.67,41.16a13.58,13.58,0,0,0-3.1-8.83,10.18,10.18,0,0,0-8.2-4.06,10.58,10.58,0,0,0-8.49,4,13.54,13.54,0,0,0-3.18,9A12.74,12.74,0,0,0,15,50.06,10.62,10.62,0,0,0,23.38,54a10.26,10.26,0,0,0,8.28-4A13.66,13.66,0,0,0,34.67,41.16Z" transform="translate(-2.38 -2.22)"/><path class="a" d="M85.55,40.9a0.74,0.74,0,0,1-.88.79q-3.26,0-10.71-.38Q67,41,63.26,41.06l-3.05,0a25.07,25.07,0,0,0-3.09.13q-0.84.34-.84,2.63V53.95q0,2.84,1.21,2.84,4.06,0,12.23-.38T82,56q0.88,0,.88.67t-0.1,2.11q-0.1,1.4-.1,2.11t0.08,2.28q0.08,1.53.08,2.28,0,0.5-.88.5-2.89,0-8.76-.17t-8.8-.17q-5.4,0-6.11.08-1.88.21-1.88,1.55,0,3.76.21,11.29t0.21,11.29a1,1,0,0,1-1,1.25,24.13,24.13,0,0,1-2.49-.19,24.15,24.15,0,0,0-2.53-.19q-0.71,0-2.18.13T46.4,91a0.87,0.87,0,0,1-1-.92q0-4.64.4-14t0.4-14q0-4.31-.88-28V33.58a1,1,0,0,1,1-1l5.31,0.13q6.57,0.13,12.17,0,7.57-.08,19.28-0.84a1.47,1.47,0,0,1,1.8,1.38A29.43,29.43,0,0,0,85,36.71,35.9,35.9,0,0,1,85.55,40.9Z" transform="translate(-2.38 -2.22)"/><path class="a" d="M66.93,90.27s0,0.07-.15.07l-0.34,0-0.34,0-0.35,0-0.35,0a1.36,1.36,0,0,1-.44-0.89,1.12,1.12,0,0,0-.55-0.9H61.06a1.23,1.23,0,0,0-.47.9,1.55,1.55,0,0,1-.39.88H58.8c-0.08,0-.12,0-0.12-0.08A1,1,0,0,1,58.77,90l1.52-3.93q0.19-.47,1.16-2.74,0.17-.37.47-1.13A0.26,0.26,0,0,1,62.08,82l0.35,0,0.35,0,0.34,0,0.33,0a0.35,0.35,0,0,1,.15.22q0.15,0.33,1.47,3.53Q66.93,90.23,66.93,90.27ZM64,87a9.49,9.49,0,0,0-.56-1.52q-0.54-1.31-.76-1.72Q61.44,86.88,61.44,87t0.47,0.23h1.25Q64,87.27,64,87Z" transform="translate(-2.38 -2.22)"/><path class="a" d="M74.33,90.29s0,0-.1,0l-0.36,0-0.36,0-0.39,0-0.39,0a0.23,0.23,0,0,1-.22-0.15q-0.2-.4-1.13-2.47a0.52,0.52,0,0,0-.45-0.26H70.38q-0.86,0-1,0t-0.13.3q0,0.41,0,1.23t0,1.22a0.11,0.11,0,0,1-.12.12l-0.37,0-0.38,0-0.32,0-0.32,0a0.13,0.13,0,0,1-.15-0.13q0-.65.06-2t0.06-2q0-1.85-.14-3.95V82.25q0-.12.26-0.12l1.6,0,1.59,0a3.59,3.59,0,0,1,2.21.62,2.29,2.29,0,0,1,.92,1.95A3.1,3.1,0,0,1,73.93,86a2.73,2.73,0,0,1-1,1,0.2,0.2,0,0,0-.12.15,16.69,16.69,0,0,0,.74,1.56A15,15,0,0,1,74.33,90.29ZM72.63,85A1.47,1.47,0,0,0,72,83.56a3.89,3.89,0,0,0-1.72-.26,1.48,1.48,0,0,0-1,.15q0,0.32,0,1.69v1.12l0.08,0,0.37,0q0.59,0,1.27,0Q72.63,86.34,72.63,85Z" transform="translate(-2.38 -2.22)"/><path class="a" d="M81.87,90.29s0,0-.1,0l-0.36,0-0.36,0-0.39,0-0.39,0a0.23,0.23,0,0,1-.22-0.15q-0.2-.4-1.13-2.47a0.52,0.52,0,0,0-.45-0.26H77.92q-0.86,0-1,0t-0.13.3q0,0.41,0,1.23t0,1.22a0.11,0.11,0,0,1-.12.12l-0.37,0L76,90.3l-0.32,0-0.32,0a0.13,0.13,0,0,1-.15-0.13q0-.65.06-2t0.06-2q0-1.85-.14-3.95V82.25q0-.12.26-0.12l1.6,0,1.59,0a3.59,3.59,0,0,1,2.21.62,2.29,2.29,0,0,1,.92,1.95A3.1,3.1,0,0,1,81.47,86a2.73,2.73,0,0,1-1,1,0.2,0.2,0,0,0-.12.15,16.69,16.69,0,0,0,.74,1.56A15,15,0,0,1,81.87,90.29ZM80.17,85a1.47,1.47,0,0,0-.64-1.42,3.89,3.89,0,0,0-1.72-.26,1.48,1.48,0,0,0-1,.15q0,0.32,0,1.69v1.12l0.08,0,0.37,0q0.59,0,1.27,0Q80.17,86.34,80.17,85Z" transform="translate(-2.38 -2.22)"/><path class="a" d="M84.42,90.21q0,0.12-.18.12l-0.34,0-0.34,0-0.35,0-0.34,0a0.13,0.13,0,0,1-.15-0.13q0-.67.06-2t0.06-2q0-.65-0.06-2t-0.06-2a0.13,0.13,0,0,1,.14-0.15l0.36,0,0.37,0,0.33,0,0.33,0q0.16,0,.16.12,0,0.66,0,2t0,2q0,0.67.05,2T84.42,90.21Z" transform="translate(-2.38 -2.22)"/><path class="a" d="M90.68,82.71q-0.12.19-.34,0.59a5.36,5.36,0,0,1-.24.52,0.12,0.12,0,0,1-.1.05l-0.6-.21a3.2,3.2,0,0,0-1-.21,0.93,0.93,0,0,0-1.14.95,1.13,1.13,0,0,0,.8.92q1.34,0.66,1.49.76a1.94,1.94,0,0,1,.8,1.63,2.38,2.38,0,0,1-1.1,2.07,4.16,4.16,0,0,1-2.42.68,0.92,0.92,0,0,1-.72-0.14q0-.22-0.11-0.65l-0.15-.53a0.3,0.3,0,0,1,0-.1A0.08,0.08,0,0,1,85.92,89l0.46,0,0.46,0q1.92,0,1.92-1.17a1.2,1.2,0,0,0-.77-1l-1.44-.79a1.92,1.92,0,0,1-.78-1.61,2.2,2.2,0,0,1,.76-1.75,2.83,2.83,0,0,1,1.91-.63,5,5,0,0,1,1.14.15,3.31,3.31,0,0,1,1.05.41Z" transform="translate(-2.38 -2.22)"/><path class="a" d="M53.2,29.16a1.09,1.09,0,0,1,0,.27l-0.07.27q0,0.21-.09.62a0.15,0.15,0,0,1-.16.11l-0.24,0a19,19,0,0,0-2.36-.11l-1.36,0-1.36,0a0.17,0.17,0,0,1-.2-0.17q0-.66.08-2t0.08-2q0-.67-0.07-2.49,0-.47-0.07-1.4V22.25q0-.13.16-0.13l1.3,0,1.3,0,1.24,0,1.24,0c0.19,0,.3.06,0.32,0.17a8.45,8.45,0,0,1,.13,1,0.12,0.12,0,0,1-.14.13q-0.53,0-1.6-.06t-1.61-.06a1,1,0,0,0-.64.13,1,1,0,0,0-.13.64v0.87a2.4,2.4,0,0,0,0,.42,0.29,0.29,0,0,0,.32.18h0.42q1.21,0,2.18,0l0.89-.06a0.1,0.1,0,0,1,.13.11,5.37,5.37,0,0,1,0,.57,5.38,5.38,0,0,0,0,.58q0,0.11-.19.11l-0.55,0q-0.35,0-1.56,0-1,0-1.29,0a0.28,0.28,0,0,0-.28.25s0,0.12,0,.45v0.87a1,1,0,0,0,.2.76,1.49,1.49,0,0,0,.77.12h0.68Q51,29.16,53,29h0.09Q53.2,29,53.2,29.16Z" transform="translate(-2.38 -2.22)"/><path class="a" d="M60.85,30.29s0,0-.1,0l-0.36,0L60,30.3l-0.39,0-0.39,0A0.23,0.23,0,0,1,59,30.19q-0.2-.4-1.13-2.47a0.52,0.52,0,0,0-.45-0.26H56.9q-0.86,0-1,0t-0.13.3q0,0.41,0,1.23t0,1.22a0.11,0.11,0,0,1-.12.12l-0.37,0L55,30.3l-0.32,0-0.32,0a0.13,0.13,0,0,1-.15-0.13q0-.65.06-2t0.06-2q0-1.85-.14-3.95V22.25q0-.12.26-0.12l1.6,0,1.59,0a3.59,3.59,0,0,1,2.21.62,2.29,2.29,0,0,1,.92,1.95A3.1,3.1,0,0,1,60.46,26a2.73,2.73,0,0,1-1,1,0.2,0.2,0,0,0-.12.15,16.69,16.69,0,0,0,.74,1.56A15,15,0,0,1,60.85,30.29ZM59.16,25a1.47,1.47,0,0,0-.64-1.42,3.89,3.89,0,0,0-1.72-.26,1.48,1.48,0,0,0-1,.15q0,0.32,0,1.69v1.12l0.08,0,0.37,0q0.59,0,1.27,0Q59.16,26.34,59.16,25Z" transform="translate(-2.38 -2.22)"/><path class="a" d="M68.39,30.29s0,0-.1,0l-0.36,0-0.36,0-0.39,0-0.39,0a0.23,0.23,0,0,1-.22-0.15q-0.2-.4-1.13-2.47A0.52,0.52,0,0,0,65,27.47H64.44q-0.86,0-1,0t-0.13.3q0,0.41,0,1.23t0,1.22a0.11,0.11,0,0,1-.12.12l-0.37,0-0.38,0-0.32,0-0.32,0a0.13,0.13,0,0,1-.15-0.13q0-.65.06-2t0.06-2q0-1.85-.14-3.95V22.25q0-.12.26-0.12l1.6,0,1.59,0a3.59,3.59,0,0,1,2.21.62,2.29,2.29,0,0,1,.92,1.95A3.1,3.1,0,0,1,68,26a2.73,2.73,0,0,1-1,1,0.2,0.2,0,0,0-.12.15,16.69,16.69,0,0,0,.74,1.56A15,15,0,0,1,68.39,30.29ZM66.7,25a1.47,1.47,0,0,0-.64-1.42,3.89,3.89,0,0,0-1.72-.26,1.48,1.48,0,0,0-1,.15q0,0.32,0,1.69v1.12l0.08,0,0.37,0q0.59,0,1.27,0Q66.7,26.34,66.7,25Z" transform="translate(-2.38 -2.22)"/><path class="a" d="M70.94,30.21q0,0.12-.18.12l-0.34,0-0.34,0-0.35,0-0.34,0a0.13,0.13,0,0,1-.15-0.13q0-.67.06-2t0.06-2q0-.65-0.06-2t-0.06-2a0.13,0.13,0,0,1,.14-0.15l0.36,0,0.37,0,0.33,0,0.33,0q0.16,0,.16.12,0,0.66,0,2t0,2q0,0.67.05,2T70.94,30.21Z" transform="translate(-2.38 -2.22)"/><path class="a" d="M79.08,29a0.36,0.36,0,0,1-.12.2,3.89,3.89,0,0,1-3,1.32,3.74,3.74,0,0,1-3-1.28,4.39,4.39,0,0,1-1-3,4.39,4.39,0,0,1,1.06-3,3.75,3.75,0,0,1,3-1.3,3.62,3.62,0,0,1,2.91,1.2,0.36,0.36,0,0,1,.1.21,2,2,0,0,1-.33.59,1.54,1.54,0,0,1-.4.49,1,1,0,0,1-.38-0.29,3.31,3.31,0,0,0-.69-0.53A2.44,2.44,0,0,0,76,23.32a2.27,2.27,0,0,0-1.91.88,3.18,3.18,0,0,0-.61,2,3.27,3.27,0,0,0,.6,2,2.24,2.24,0,0,0,1.9.91,2.55,2.55,0,0,0,1.17-.29,3.5,3.5,0,0,0,.76-0.53A2.11,2.11,0,0,1,78.3,28a2.73,2.73,0,0,1,.41.47A3,3,0,0,1,79.08,29Z" transform="translate(-2.38 -2.22)"/><path class="a" d="M86.62,30.06c0,0.18-.06.28-0.18,0.28H85a3.49,3.49,0,0,1-.94-1.25,16.49,16.49,0,0,1-.85-1.52L83,27.06a0.57,0.57,0,0,0-.43-0.31H82.14q-0.78,0-.78.18,0,0.54,0,1.61t0,1.61a0.16,0.16,0,0,1-.15.19l-0.35,0-0.35,0-0.33,0-0.33,0a0.13,0.13,0,0,1-.15-0.13q0-.64.06-1.94t0.06-1.94q0-.68-0.06-2t-0.06-2a0.13,0.13,0,0,1,.15-0.13l0.34,0,0.35,0,0.33,0,0.33,0c0.09,0,.14,0,0.14.11q0,0.5,0,1.5t0,1.51a0.79,0.79,0,0,0,0,.29,0.25,0.25,0,0,0,.25.11,2.93,2.93,0,0,0,1.76-.42,3.49,3.49,0,0,0,.9-1.38l0.62-1.57a0.25,0.25,0,0,1,.19-0.13,4.78,4.78,0,0,1,.66,0q0.68,0,.68.18a6.85,6.85,0,0,1-.29.95A6.69,6.69,0,0,1,85.3,25a5.83,5.83,0,0,1-.94,1,0.33,0.33,0,0,0-.15.22,6.16,6.16,0,0,0,.5,1,11.77,11.77,0,0,0,.79,1.31Q85.89,29,86.59,30A0.22,0.22,0,0,1,86.62,30.06Z" transform="translate(-2.38 -2.22)"/></svg>