<svg xmlns="http://www.w3.org/2000/svg" viewBox="0 0 84 85.91"><defs><style>.a{fill:#fff;}</style></defs><title>Derrick-Farris-Logo</title><path class="a" d="M194.55,130.23" transform="translate(-7.54 -5.74)"/><path class="a" d="M50.29,6.62q0,5.4-.48,16.17T49.33,38.91q0,16.52.71,25l0,0.54q0,0.42-1.13.54a15.09,15.09,0,0,1-2.26,0l-1.63-.13q-0.63,0-1.84.13t-1.84.13q-0.59,0-.69-2.91t-0.31-2.95a2.45,2.45,0,0,0-.63.54Q34,66,26.57,66a17.36,17.36,0,0,1-13.89-6.44A21.87,21.87,0,0,1,7.54,44.93a22.24,22.24,0,0,1,5.19-15A17.77,17.77,0,0,1,26.91,23.6a14.44,14.44,0,0,1,9.2,3.1q1.8,1.55,3.56,3.14A0.55,0.55,0,0,0,40,29.24V15.69q0-1.38-.13-4.18T39.75,7.29q0-1,.67-1Q42,6.28,45,6t4.56-.27A0.71,0.71,0,0,1,50.29,6.62ZM39.83,44.68a13.58,13.58,0,0,0-3.1-8.83,10.18,10.18,0,0,0-8.2-4.06,10.58,10.58,0,0,0-8.49,4,13.54,13.54,0,0,0-3.18,9,12.74,12.74,0,0,0,3.3,8.74,10.62,10.62,0,0,0,8.37,3.93,10.26,10.26,0,0,0,8.28-4A13.66,13.66,0,0,0,39.83,44.68Z" transform="translate(-7.54 -5.74)"/><path class="a" d="M91.54,41.42a0.74,0.74,0,0,1-.88.79q-3.26,0-10.71-.38Q73,41.5,69.25,41.58l-3.05,0a25.07,25.07,0,0,0-3.09.13q-0.84.34-.84,2.63V54.47q0,2.84,1.21,2.84,4.06,0,12.23-.38t12.23-.38q0.88,0,.88.67t-0.1,2.11q-0.1,1.4-.1,2.11t0.08,2.28q0.08,1.53.08,2.28,0,0.5-.88.5-2.89,0-8.76-.17t-8.8-.17q-5.4,0-6.11.08-1.88.21-1.88,1.55,0,3.76.21,11.29T62.77,90.4a1,1,0,0,1-1,1.25,24.13,24.13,0,0,1-2.49-.19,24.15,24.15,0,0,0-2.53-.19q-0.71,0-2.18.13t-2.17.13a0.87,0.87,0,0,1-1-.92q0-4.64.4-14t0.4-14q0-4.31-.88-28V34.1a1,1,0,0,1,1-1l5.31,0.13q6.57,0.13,12.17,0,7.57-.08,19.28-0.84a1.47,1.47,0,0,1,1.8,1.38A29.43,29.43,0,0,0,91,37.24,35.9,35.9,0,0,1,91.54,41.42Z" transform="translate(-7.54 -5.74)"/></svg>